<svg width="61" height="25" viewBox="0 0 61 25" fill="none" xmlns="http://www.w3.org/2000/svg">
<path fill-rule="evenodd" clip-rule="evenodd" d="M40.5 12.5C40.5 12.3295 40.5658 12.1661 40.683 12.0455C40.8002 11.925 40.9592 11.8573 41.1249 11.8573H48.3654L45.6819 9.09861C45.5646 8.97792 45.4987 8.81423 45.4987 8.64355C45.4987 8.47287 45.5646 8.30918 45.6819 8.18849C45.7993 8.0678 45.9584 8 46.1244 8C46.2903 8 46.4495 8.0678 46.5668 8.18849L50.3164 12.0449C50.3746 12.1046 50.4208 12.1756 50.4523 12.2537C50.4838 12.3317 50.5 12.4155 50.5 12.5C50.5 12.5845 50.4838 12.6683 50.4523 12.7463C50.4208 12.8244 50.3746 12.8954 50.3164 12.9551L46.5668 16.8115C46.4495 16.9322 46.2903 17 46.1244 17C45.9584 17 45.7993 16.9322 45.6819 16.8115C45.5646 16.6908 45.4987 16.5271 45.4987 16.3564C45.4987 16.1858 45.5646 16.0221 45.6819 15.9014L48.3654 13.1427H41.1249C40.9592 13.1427 40.8002 13.075 40.683 12.9545C40.5658 12.834 40.5 12.6705 40.5 12.5Z" fill="#F4F5F6"/>
<path d="M10.628 7.328H11.94L14.948 15.472L17.956 7.328H19.268L14.948 18.64L10.628 7.328ZM26.3026 7.328V8.448H21.9506V11.616H26.1746V12.736H21.9506V16.88H26.3026V18H20.7666V7.328H26.3026ZM28.4854 7.328H30.1974C30.9174 7.328 31.9894 7.376 32.7894 7.92C33.4134 8.336 33.9574 9.152 33.9574 10.288C33.9574 11.92 32.8854 13.12 31.2694 13.232L34.6614 18H33.2214L29.9734 13.328H29.6694V18H28.4854V7.328ZM29.6694 8.448V12.272H30.4214C31.8934 12.272 32.7734 11.568 32.7734 10.32C32.7734 9.728 32.5974 9.136 31.9254 8.752C31.4454 8.48 30.9014 8.448 30.3894 8.448H29.6694Z" fill="white"/>
<rect x="0.125" y="0.125" width="60.75" height="24.75" rx="12.375" stroke="#F4F5F6" stroke-width="0.25"/>
</svg>
