<svg width="47" height="72" viewBox="0 0 47 72" fill="none" xmlns="http://www.w3.org/2000/svg">
<path d="M11.0723 72C5.02122 72 0.115827 67.0946 0.115827 61.0435C0.115827 54.9923 5.02122 50.087 11.0723 50.087H22.0289V61.0435C22.0289 67.0946 17.1235 72 11.0723 72ZM36 21.913H25.0435V0H36C42.0511 0 46.9565 4.90539 46.9565 10.9565C46.9565 17.0077 42.0511 21.913 36 21.913ZM10.9565 21.913H21.913V0H10.9565C4.90539 0 0 4.90539 0 10.9565C0 17.0077 4.90539 21.913 10.9565 21.913ZM10.9565 46.9565H21.913V25.0435H10.9565C4.90539 25.0435 0 29.9489 0 36C0 42.0511 4.90539 46.9565 10.9565 46.9565ZM34.4348 25.0435C31.9441 25.0435 29.5553 26.0329 27.7941 27.7941C26.0329 29.5553 25.0435 31.9441 25.0435 34.4348C25.0435 36.9255 26.0329 39.3142 27.7941 41.0754C29.5553 42.8367 31.9441 43.8261 34.4348 43.8261C36.9255 43.8261 39.3142 42.8367 41.0754 41.0754C42.8367 39.3142 43.8261 36.9255 43.8261 34.4348C43.8261 31.9441 42.8367 29.5553 41.0754 27.7941C39.3142 26.0329 36.9255 25.0435 34.4348 25.0435Z" fill="#F4F5F6"/>
</svg>
