<svg width="72" height="72" viewBox="0 0 72 72" fill="none" xmlns="http://www.w3.org/2000/svg">
<path fill-rule="evenodd" clip-rule="evenodd" d="M8.15918 1.27846C6.25733 1.94453 3.74555 3.77544 2.57745 5.34884C0.582234 8.03337 0.432034 9.70613 0.125546 32.7213C-0.259086 61.6357 0.0352236 64.3881 3.981 68.7038C9.56273 74.8089 9.86212 74.0404 10.3208 52.4183C10.7917 30.1949 11.3032 28.2555 18.8142 20.2344C24.6466 14.0056 31.7892 10.8527 40.0664 10.8527C53.0617 10.8527 61.8971 20.058 61.8291 33.5272C61.757 47.9738 44.8809 59.4996 33.7387 52.7123C27.8049 49.0991 25.5732 40.789 28.841 34.4772C30.8921 30.5142 38.8283 26.6841 41.9977 28.1268C46.527 30.1888 45.3863 36.9042 40.38 37.6493C35.1352 38.4289 35.8811 44.5614 41.2213 44.5614C47.1136 44.5614 52.7176 38.506 52.7176 32.1393C52.7176 28.9581 48.8226 23.1652 45.5832 21.527C38.0062 17.6968 26.8438 22.4982 22.1734 31.5949C20.4857 34.8827 20.2421 37.6625 20.2421 53.6449V71.9338H42.1124C65.9595 71.9338 69.0975 71.3164 71.0288 66.2434C71.5626 64.8403 72 51.1318 72 35.7809C72 9.2996 71.8934 7.72213 69.9266 4.96158C68.725 3.27665 66.2711 1.61403 64.0912 1.00981C58.7134 -0.482495 12.5556 -0.260475 8.15918 1.27846Z" fill="#F4F5F6"/>
</svg>
