<svg width="72" height="72" viewBox="0 0 72 72" fill="none" xmlns="http://www.w3.org/2000/svg">
<path d="M64 0H8C3.6 0 0 3.6 0 8V64C0 68.4 3.6 72 8 72H64C68.4 72 72 68.4 72 64V8C72 3.6 68.4 0 64 0ZM27.16 25.208H22.696V35.256H27.16C30.136 35.256 30.88 33.024 30.88 30.42C30.884 27.812 29.768 25.208 27.16 25.208ZM27.16 40.464H22.696V52H16V20H26.792C36.096 20 37.212 28.56 37.212 30.42C37.208 37.86 32 40.464 27.16 40.464ZM55.34 34.4C55.044 34.368 53.448 34.212 53.136 34.212C50.588 34.212 49.768 35.82 49.456 36.604V52H42.8V28H49.056L49.244 30.744C49.744 29.728 51.08 27.532 53.58 27.532C54.676 27.532 55.188 27.744 55.408 27.836L55.34 34.4Z" fill="#F4F5F6"/>
</svg>
